<svg width="76" height="84" viewBox="0 0 76 84" fill="none" xmlns="http://www.w3.org/2000/svg">
<path d="M10 21C8.34314 21 7 19.6568 7 18L7 14C7 12.3431 8.34315 11 10 11L64 11C65.6569 11 67 12.3431 67 14L67 18L66.9961 18.1543C66.9158 19.7394 65.6051 21 64 21L10 21Z" fill="#CC8621" stroke="black" stroke-width="4"/>
<path d="M11 38C9.34314 38 8 36.6568 8 35L8 31C8 29.3431 9.34315 28 11 28L65 28C66.6569 28 68 29.3431 68 31L68 35L67.9961 35.1543C67.9158 36.7394 66.6051 38 65 38L11 38Z" fill="#CC8621" stroke="black" stroke-width="4"/>
<path d="M11 55C9.34314 55 8 53.6568 8 52L8 48C8 46.3431 9.34315 45 11 45L65 45C66.6569 45 68 46.3431 68 48L68 52L67.9961 52.1543C67.9158 53.7394 66.6051 55 65 55L11 55Z" fill="#CC8621" stroke="black" stroke-width="4"/>
<path d="M11 72C9.34314 72 8 70.6568 8 69L8 65C8 63.3431 9.34315 62 11 62L65 62C66.6569 62 68 63.3431 68 65L68 69L67.9961 69.1543C67.9158 70.7394 66.6051 72 65 72L11 72Z" fill="#CC8621" stroke="black" stroke-width="4"/>
<path d="M74 77C74 79.7614 71.7614 82 69 82C66.2386 82 64 79.7614 64 77L64 7C64 4.23858 66.2386 2 69 2C71.7614 2 74 4.23858 74 7L74 77Z" fill="#CC8621" stroke="black" stroke-width="4"/>
<path d="M12 77C12 79.7614 9.76142 82 7 82C4.23857 82 2 79.7614 2 77L2 7C2 4.23858 4.23857 2 7 2C9.76142 2 12 4.23858 12 7L12 77Z" fill="#CC8621" stroke="black" stroke-width="4"/>
<path d="M69 69C69 69.5523 68.5523 70 68 70L8 70C7.44772 70 7 69.5523 7 69L7 65C7 64.4477 7.44772 64 8 64L68 64C68.5523 64 69 64.4477 69 65L69 69Z" fill="#CC8621"/>
<path d="M69 52C69 52.5523 68.5523 53 68 53L8 53C7.44772 53 7 52.5523 7 52L7 48C7 47.4477 7.44772 47 8 47L68 47C68.5523 47 69 47.4477 69 48L69 52Z" fill="#CC8621"/>
<path d="M68 35C68 35.5523 67.5523 36 67 36L7 36C6.44772 36 6 35.5523 6 35L6 31C6 30.4477 6.44772 30 7 30L67 30C67.5523 30 68 30.4477 68 31L68 35Z" fill="#CC8621"/>
<path d="M69 18C69 18.5523 68.5523 19 68 19L8 19C7.44772 19 7 18.5523 7 18L7 14C7 13.4477 7.44772 13 8 13L68 13C68.5523 13 69 13.4477 69 14L69 18Z" fill="#CC8621"/>
</svg>
