<svg width="80" height="80" viewBox="0 0 80 80" fill="none" xmlns="http://www.w3.org/2000/svg">
<path d="M40.6455 3.08496C41.7639 4.0508 43.253 5.44704 44.7363 7.16504C47.7566 10.6631 50.5 15.2015 50.5 20C50.5 24.7985 47.7566 29.3369 44.7363 32.835C43.253 34.553 41.7639 35.9492 40.6455 36.915C40.4131 37.1158 40.1957 37.2955 40 37.457C39.8043 37.2955 39.5869 37.1158 39.3545 36.915C38.2361 35.9492 36.747 34.553 35.2637 32.835C32.2434 29.3369 29.5 24.7985 29.5 20C29.5 15.2015 32.2434 10.6631 35.2637 7.16504C36.747 5.44704 38.2361 4.0508 39.3545 3.08496C39.5871 2.88407 39.8042 2.70362 40 2.54199C40.1958 2.70362 40.4129 2.88407 40.6455 3.08496Z" fill="#407A29" stroke="black" stroke-width="4"/>
<path d="M76.915 40.6455C75.9492 41.7639 74.553 43.253 72.835 44.7363C69.3369 47.7566 64.7985 50.5 60 50.5C55.2015 50.5 50.6631 47.7566 47.165 44.7363C45.447 43.253 44.0508 41.7639 43.085 40.6455C42.8842 40.4131 42.7045 40.1957 42.543 40C42.7045 39.8043 42.8842 39.5869 43.085 39.3545C44.0508 38.2361 45.447 36.747 47.165 35.2637C50.6631 32.2434 55.2015 29.5 60 29.5C64.7985 29.5 69.3369 32.2434 72.835 35.2637C74.553 36.747 75.9492 38.2361 76.915 39.3545C77.1159 39.5871 77.2964 39.8042 77.458 40C77.2964 40.1958 77.1159 40.4129 76.915 40.6455Z" fill="#407A29" stroke="black" stroke-width="4"/>
<path d="M36.915 40.6455C35.9492 41.7639 34.553 43.253 32.835 44.7363C29.3369 47.7566 24.7985 50.5 20 50.5C15.2015 50.5 10.6631 47.7566 7.16504 44.7363C5.44705 43.253 4.0508 41.7639 3.08496 40.6455C2.88424 40.4131 2.7045 40.1957 2.54297 40C2.7045 39.8043 2.88424 39.5869 3.08496 39.3545C4.0508 38.2361 5.44705 36.747 7.16504 35.2637C10.6631 32.2434 15.2015 29.5 20 29.5C24.7985 29.5 29.3369 32.2434 32.835 35.2637C34.553 36.747 35.9492 38.2361 36.915 39.3545C37.1159 39.5871 37.2964 39.8042 37.458 40C37.2964 40.1958 37.1159 40.4129 36.915 40.6455Z" fill="#407A29" stroke="black" stroke-width="4"/>
<path d="M39.3545 76.915C38.2361 75.9492 36.747 74.553 35.2637 72.835C32.2434 69.3369 29.5 64.7985 29.5 60C29.5 55.2015 32.2434 50.6631 35.2637 47.165C36.747 45.447 38.2361 44.0508 39.3545 43.085C39.5869 42.8842 39.8043 42.7045 40 42.543C40.1957 42.7045 40.4131 42.8842 40.6455 43.085C41.7639 44.0508 43.253 45.447 44.7363 47.165C47.7566 50.6631 50.5 55.2015 50.5 60C50.5 64.7985 47.7566 69.3369 44.7363 72.835C43.253 74.553 41.7639 75.9492 40.6455 76.915C40.4129 77.1159 40.1958 77.2964 40 77.458C39.8042 77.2964 39.5871 77.1159 39.3545 76.915Z" fill="#407A29" stroke="black" stroke-width="4"/>
<path d="M42.0518 25.7725L42.624 26.8076L43.5498 26.0703L46.8633 23.4297L47.3398 27.6406L47.4727 28.8154L48.6104 28.4893L52.6807 27.3184L51.5107 31.3896L51.1846 32.5273L52.3594 32.6602L56.5693 33.1357L53.9297 36.4502L53.1924 37.376L54.2275 37.9482L57.9346 40L54.2275 42.0518L53.1924 42.624L53.9297 43.5498L56.5693 46.8633L52.3594 47.3398L51.1846 47.4727L51.5107 48.6104L52.6807 52.6807L48.6104 51.5107L47.4727 51.1846L47.3398 52.3594L46.8633 56.5693L43.5498 53.9297L42.624 53.1924L42.0518 54.2275L40 57.9346L37.9482 54.2275L37.376 53.1924L36.4502 53.9297L33.1357 56.5693L32.6602 52.3594L32.5273 51.1846L31.3897 51.5107L27.3184 52.6807L28.4893 48.6104L28.8154 47.4727L27.6406 47.3398L23.4297 46.8633L26.0703 43.5498L26.8076 42.624L25.7725 42.0518L22.0645 40L25.7725 37.9482L26.8076 37.376L26.0703 36.4502L23.4297 33.1357L27.6406 32.6602L28.8154 32.5273L28.4893 31.3896L27.3184 27.3184L31.3897 28.4893L32.5273 28.8154L32.6602 27.6406L33.1357 23.4297L36.4502 26.0703L37.376 26.8076L37.9482 25.7725L40 22.0645L42.0518 25.7725Z" fill="#FFD8F8" stroke="black" stroke-width="2"/>
</svg>
